<svg width="31" height="32" viewBox="0 0 31 32" fill="none" xmlns="http://www.w3.org/2000/svg">
<path d="M27.6383 0.902344H3.77722C2.91427 0.902344 2.08665 1.24515 1.47645 1.85536C0.866246 2.46556 0.523438 3.29317 0.523438 4.15613L0.523438 28.0172C0.523438 28.8802 0.866246 29.7078 1.47645 30.318C2.08665 30.9282 2.91427 31.271 3.77722 31.271H13.081V20.9463H8.81042V16.0867H13.081V12.3828C13.081 8.16981 15.5891 5.84268 19.4306 5.84268C21.2704 5.84268 23.1942 6.17077 23.1942 6.17077V10.3058H21.0745C18.986 10.3058 18.3345 11.6019 18.3345 12.9312V16.0867H22.9969L22.2513 20.9463H18.3345V31.271H27.6383C28.5013 31.271 29.3289 30.9282 29.9391 30.318C30.5493 29.7078 30.8921 28.8802 30.8921 28.0172V4.15613C30.8921 3.29317 30.5493 2.46556 29.9391 1.85536C29.3289 1.24515 28.5013 0.902344 27.6383 0.902344Z" fill="white"/>
</svg>
